<?xml version="1.0" standalone="no"?><!DOCTYPE svg PUBLIC "-//W3C//DTD SVG 1.1//EN" "http://www.w3.org/Graphics/SVG/1.1/DTD/svg11.dtd"><svg t="1533626864951" class="icon" style="" viewBox="0 0 1024 1024" version="1.1" xmlns="http://www.w3.org/2000/svg" p-id="4213" xmlns:xlink="http://www.w3.org/1999/xlink" width="2000" height="2000"><defs><style type="text/css"></style></defs><path d="M514.752 65.984a448 448 0 1 0 0 896 448 448 0 0 0 0-896z m42.944 732.16c0 9.28-7.424 16.64-16.64 16.64h-62.528a16.64 16.64 0 0 1-16.64-16.64V468.864a16.64 16.64 0 0 1 16.64-16.704h62.528a16.64 16.64 0 0 1 16.64 16.704v329.28z m-42.944-398.72a72.32 72.32 0 1 1 0-144.64 72.32 72.32 0 0 1 0 144.64z" p-id="4214"></path></svg>