<?xml version="1.0" standalone="no"?><!DOCTYPE svg PUBLIC "-//W3C//DTD SVG 1.1//EN" "http://www.w3.org/Graphics/SVG/1.1/DTD/svg11.dtd"><svg t="1533626832912" class="icon" style="" viewBox="0 0 1024 1024" version="1.1" xmlns="http://www.w3.org/2000/svg" p-id="2209" xmlns:xlink="http://www.w3.org/1999/xlink" width="200" height="200"><defs><style type="text/css"></style></defs><path d="M964.222028 478.625616L546.227038 60.498747c-9.353051-9.338828-21.621657-13.949414-33.868282-13.867959-0.121535 0-0.246949 0.040081-0.369778 0.040081-0.125414 0-0.252121-0.040081-0.373657-0.040081-12.246626-0.081455-24.515232 4.529131-33.868283 13.867959L59.752048 478.625616c-11.273051 11.252364-15.555232 26.757172-13.130989 41.358222-0.086626 1.161051-0.333576 2.278141-0.333576 3.479273 0 29.26804 21.081212 53.010101 47.06004 53.010101h79.813818v332.333253c0 38.600404 31.318626 69.889293 69.979798 69.889293h135.606303c38.621091 0 69.938424-31.287596 69.938425-69.889293v-97.33301c0-0.742141-0.206869-1.428687-0.206869-2.172122 0-35.086222 28.444444-63.51903 63.50998-63.51903 35.066828 0 63.506101 28.432808 63.506101 63.51903 0 0.742141-0.201697 1.428687-0.201697 2.172122v97.33301c0 38.600404 31.297939 69.889293 69.939717 69.889293h135.601131c38.666343 0 69.98497-31.287596 69.98497-69.889293V576.473212h79.808646c25.985293 0 47.065212-23.742061 47.065213-53.010101 0-1.202424-0.246949-2.318222-0.312889-3.479273 2.422949-14.601051-1.885091-30.105859-13.158142-41.358222z" p-id="2210"></path></svg>