<?xml version="1.0" standalone="no"?><!DOCTYPE svg PUBLIC "-//W3C//DTD SVG 1.1//EN" "http://www.w3.org/Graphics/SVG/1.1/DTD/svg11.dtd"><svg t="1535960192494" class="icon" style="" viewBox="0 0 1194 1024" version="1.1" xmlns="http://www.w3.org/2000/svg" p-id="1924" xmlns:xlink="http://www.w3.org/1999/xlink" width="29.150390625" height="25"><defs><style type="text/css"></style></defs><path d="M594.005333 631.722667c-15.36 0-30.549333-3.754667-44.117333-10.837334L18.602667 345.088a32.597333 32.597333 0 0 1 0-57.856L549.888 11.434667a96 96 0 0 1 88.32 0l531.2 275.797333a32.597333 32.597333 0 0 1 0 57.856L638.293333 620.885333c-13.653333 7.082667-28.757333 10.837333-44.202666 10.837334zM104.362667 316.16l475.477333 246.869333a30.72 30.72 0 0 0 28.330667 0L1083.733333 316.16 608.170667 69.290667a30.72 30.72 0 0 0-28.330667 0L104.362667 316.16z m962.730666 502.784a32.597333 32.597333 0 0 1-32.597333-32.597333V525.738667a32.597333 32.597333 0 0 1 65.194667 0v260.608c0 18.005333-14.506667 32.597333-32.597334 32.597333z" p-id="1925"></path><path d="M952.32 831.744l0.085333-1.450667V602.197333a32.597333 32.597333 0 0 0-65.109333 0v208.213334l-278.186667 144.469333a32.682667 32.682667 0 0 1-30.122666 0l-278.186667-144.384V602.197333a32.597333 32.597333 0 0 0-65.194667 0V830.293333a26.88 26.88 0 0 0 0 1.706667c0.682667 11.093333 6.997333 21.674667 17.578667 27.136l295.765333 153.6a97.792 97.792 0 0 0 90.112 0l295.765334-153.6a32.597333 32.597333 0 0 0 17.578666-27.221333v-0.170667" p-id="1926"></path></svg>