<?xml version="1.0" standalone="no"?><!DOCTYPE svg PUBLIC "-//W3C//DTD SVG 1.1//EN" "http://www.w3.org/Graphics/SVG/1.1/DTD/svg11.dtd"><svg t="1533626883172" class="icon" style="" viewBox="0 0 1024 1024" version="1.1" xmlns="http://www.w3.org/2000/svg" p-id="4430" xmlns:xlink="http://www.w3.org/1999/xlink" width="200" height="200"><defs><style type="text/css"></style></defs><path d="M512 73.142857a438.857143 438.857143 0 1 0 0 877.714286A438.857143 438.857143 0 0 0 512 73.142857z m0 62.902857a373.540571 373.540571 0 0 1 265.801143 110.153143A374.637714 374.637714 0 0 1 887.954286 512a373.540571 373.540571 0 0 1-110.08 265.801143A374.710857 374.710857 0 0 1 512 887.954286a373.540571 373.540571 0 0 1-265.801143-110.08A374.637714 374.637714 0 0 1 136.045714 512a373.540571 373.540571 0 0 1 110.08-265.801143A374.710857 374.710857 0 0 1 512 136.045714z m68.315429 314.806857a110.665143 110.665143 0 0 0-26.697143-22.235428 17.846857 17.846857 0 1 0-18.285715 30.72c6.729143 3.949714 12.8 9.069714 18.066286 15.067428l1.462857 1.682286c27.428571 31.451429 24.137143 79.36-7.314285 106.788572l-134.070858 117.028571c-31.451429 27.428571-79.433143 24.137143-106.788571-7.314286l-1.462857-1.682285a75.117714 75.117714 0 0 1-18.432-54.930286c1.389714-20.260571 10.459429-38.692571 25.6-51.931429l67.072-58.514285a17.846857 17.846857 0 1 0-23.478857-26.916572l-67.072 58.514286c-22.308571 19.529143-35.766857 46.665143-37.814857 76.434286-1.974857 29.769143 7.606857 58.514286 27.062857 80.822857l1.536 1.682285c21.942857 25.234286 52.955429 38.180571 84.114285 38.180572 25.965714 0 52.077714-9.069714 73.142858-27.428572l134.070857-117.028571a111.616 111.616 0 0 0 10.752-157.257143l-1.462857-1.682286z m165.449142-141.312l-1.462857-1.682285a110.665143 110.665143 0 0 0-76.507428-37.814857c-29.696-2.048-58.514286 7.606857-80.822857 27.062857l-134.070858 117.028571a111.616 111.616 0 0 0-10.752 157.257143l1.462858 1.682286c6.802286 7.753143 14.555429 14.482286 23.113142 20.041143a17.773714 17.773714 0 0 0 24.722286-5.193143 17.846857 17.846857 0 0 0-5.193143-24.795429 75.117714 75.117714 0 0 1-15.652571-13.531428l-1.462857-1.755429a75.776 75.776 0 0 1 7.314285-106.788571l134.070858-117.028572c15.140571-13.165714 34.669714-19.748571 54.857142-18.285714 20.260571 1.389714 38.765714 10.459429 51.931429 25.6l1.462857 1.755428c27.428571 31.451429 24.137143 79.36-7.314286 106.788572l-66.998857 58.514286a17.846857 17.846857 0 1 0 23.478857 26.916571l67.072-58.514286a111.542857 111.542857 0 0 0 10.752-157.257143z" p-id="4431"></path></svg>